<?xml version="1.0" encoding="utf-8"?>
<svg version="1.1" xmlns="http://www.w3.org/2000/svg" xmlns:xlink="http://www.w3.org/1999/xlink" x="0px" y="0px" width="986px" height="313px" viewBox="0 0 986 313" enable-background="new 0 0 986 313" xml:space="preserve">
	<g>
		<path fill="#FFFFFF" d="M83.528,99.575c2.706,4.176,3.898,7.9,5.409,15.76c10.58-10.326,23.625-15.76,37.862-15.76
			c12.859,0,23.413,4.176,31.579,12.698c2.2,2.137,4.322,4.892,6.152,7.597c14.21-14.555,26.937-20.295,43.985-20.295
			c12.143,0,23.65,3.63,30.677,9.677c8.776,7.584,11.559,16.702,11.559,37.93v110.443H211.3v-102.53c0-18.586-2.2-22.18-12.78-22.18
			c-7.583,0-18.241,5.172-26.991,13.059v111.651H133.03V156.552c0-19.38-2.809-23.93-14.104-23.93
			c-7.504,0-17.898,3.887-26.647,11.813v113.189H52.561V149.287c0-22.432-1.538-32.122-5.806-39.742L83.528,99.575z"/>
		<path fill="#FFFFFF" d="M395.995,122.616c12.409,14.556,17.95,31.536,17.95,56.714c0,26.698-6.124,44.938-19.515,60.079
			c-11.771,13.337-27.282,21.557-51.198,21.557c-42.236,0-69.784-31.566-69.784-80.391c0-48.868,27.839-81.347,69.784-81.347
			C365.372,99.229,382.66,106.839,395.995,122.616z M322.897,145.045c-2.784,8.22-4.268,19.131-4.268,34.615
			c0,17.855,1.829,31.273,5.143,39.134c3.659,8.499,12.808,12.741,20.627,12.741c17.607,0,25.137-15.763,25.137-52.471
			c0-20.948-2.732-34.629-8.166-41.627c-3.9-5.118-10.235-8.166-17.553-8.166C334.086,129.271,326.185,135.314,322.897,145.045z"/>
		<path fill="#FFFFFF" d="M544.711,102.28v27.916l-68.616,99.203h71.295l-9.73,28.226H423.333V232.45l73.046-101.641h-66.95V102.28
			H544.711z"/>
		<path fill="#FFFFFF" d="M613.464,59.511c0,13.975-11.11,25.135-25.161,25.135c-13.603,0-24.79-11.16-24.79-25.135
			c0-13.946,11.561-25.201,25.477-25.201C602.619,34.31,613.464,45.565,613.464,59.511z M608.692,98.62v159.005h-40.647V105.009
			L608.692,98.62z"/>
		<path fill="#FFFFFF" d="M682.718,73.486v121.035c0,26.738,0.319,30.332,2.759,34.574c1.537,2.756,4.824,4.243,8.22,4.243
			c1.457,0,2.331,0,4.532-0.559l6.947,24.245c-6.947,2.719-15.457,4.233-24.258,4.233c-17.342,0-31.288-8.17-36.116-21.188
			c-3.048-7.9-3.711-12.778-3.711-34.918V89.206c0-20.309-0.528-32.717-2.043-46.729l41.577-9.399
			C682.082,41.563,682.718,51.584,682.718,73.486z"/>
		<path fill="#FFFFFF" d="M767.031,73.486v121.035c0,26.738,0.347,30.332,2.84,34.574c1.43,2.756,4.717,4.243,8.112,4.243
			c1.537,0,2.466,0,4.612-0.559l6.922,24.245c-6.922,2.719-15.434,4.233-24.263,4.233c-17.312,0-31.284-8.17-36.136-21.188
			c-3.103-7.9-3.607-12.778-3.607-34.918V89.206c0-20.309-0.608-32.717-2.174-46.729l41.52-9.399
			C766.53,41.563,767.031,51.584,767.031,73.486z"/>
		<path fill="#FFFFFF" d="M830.824,108.058c15.114-6.39,28.108-9.095,42.425-9.095c26.143,0,44.013,9.68,50.136,26.991
			c2.016,6.365,2.944,11.218,2.759,27.919l-0.982,52.155c0,0.915,0,1.881,0,2.756c0,16.678,2.759,23.067,14.637,31.846
			l-21.581,24.922c-9.495-3.977-17.95-10.976-21.903-18.839c-2.995,3.063-6.362,6.033-9.438,8.18
			c-7.529,5.464-18.531,8.513-31.26,8.513c-34.599,0-53.396-17.634-53.396-48.521c0-36.469,25.241-53.48,74.66-53.48
			c2.971,0,5.781,0,9.148,0.347v-6.336c0-17.327-3.367-23.095-18.32-23.095c-12.887,0-28.186,6.336-44.837,17.591l-17.313-29.138
			C813.803,115.601,819.876,112.593,830.824,108.058z M883.508,189.67c-28.105,0-37.967,5.117-37.967,23.703
			c0,12.089,7.688,20.282,18.001,20.282c7.557,0,15.194-3.95,21.214-10.605l0.663-33.38H883.508z"/>
	</g>
</svg>
