<?xml version="1.0" encoding="UTF-8" standalone="no"?>
<svg
   xmlns:dc="http://purl.org/dc/elements/1.1/"
   xmlns:cc="http://creativecommons.org/ns#"
   xmlns:rdf="http://www.w3.org/1999/02/22-rdf-syntax-ns#"
   xmlns:svg="http://www.w3.org/2000/svg"
   xmlns="http://www.w3.org/2000/svg"
   id="svg3336"
   xml:space="preserve"
   enable-background="new 0 0 986 313"
   viewBox="0 0 893.04401 232.474"
   height="232.474"
   width="893.04401"
   y="0px"
   x="0px"
   version="1.1"><metadata
     id="metadata3358"><rdf:RDF><cc:Work
         rdf:about=""><dc:format>image/svg+xml</dc:format><dc:type
           rdf:resource="http://purl.org/dc/dcmitype/StillImage" /><dc:title></dc:title></cc:Work></rdf:RDF></metadata><defs
     id="defs3356" /><g
     transform="translate(-46.755,-33.078)"
     id="g3338"><path
       style="fill:#ffffff"
       id="path3340"
       d="m 83.528,99.575 c 2.706,4.176 3.898,7.9 5.409,15.76 10.58,-10.326 23.625,-15.76 37.862,-15.76 12.859,0 23.413,4.176 31.579,12.698 2.2,2.137 4.322,4.892 6.152,7.597 14.21,-14.555 26.937,-20.295 43.985,-20.295 12.143,0 23.65,3.63 30.677,9.677 8.776,7.584 11.559,16.702 11.559,37.93 l 0,110.443 -39.451,0 0,-102.53 c 0,-18.586 -2.2,-22.18 -12.78,-22.18 -7.583,0 -18.241,5.172 -26.991,13.059 l 0,111.651 -38.499,0 0,-101.073 c 0,-19.38 -2.809,-23.93 -14.104,-23.93 -7.504,0 -17.898,3.887 -26.647,11.813 l 0,113.189 -39.718,0 0,-108.337 c 0,-22.432 -1.538,-32.122 -5.806,-39.742 l 36.773,-9.97 z" /><path
       style="fill:#ffffff"
       id="path3342"
       d="m 395.995,122.616 c 12.409,14.556 17.95,31.536 17.95,56.714 0,26.698 -6.124,44.938 -19.515,60.079 -11.771,13.337 -27.282,21.557 -51.198,21.557 -42.236,0 -69.784,-31.566 -69.784,-80.391 0,-48.868 27.839,-81.347 69.784,-81.347 22.14,0.001 39.428,7.611 52.763,23.388 z m -73.098,22.429 c -2.784,8.22 -4.268,19.131 -4.268,34.615 0,17.855 1.829,31.273 5.143,39.134 3.659,8.499 12.808,12.741 20.627,12.741 17.607,0 25.137,-15.763 25.137,-52.471 0,-20.948 -2.732,-34.629 -8.166,-41.627 -3.9,-5.118 -10.235,-8.166 -17.553,-8.166 -9.731,0 -17.632,6.043 -20.92,15.774 z" /><path
       style="fill:#ffffff"
       id="path3344"
       d="m 544.711,102.28 0,27.916 -68.616,99.203 71.295,0 -9.73,28.226 -114.327,0 0,-25.175 73.046,-101.641 -66.95,0 0,-28.529 115.282,0 z" /><path
       style="fill:#ffffff"
       id="path3346"
       d="m 613.464,59.511 c 0,13.975 -11.11,25.135 -25.161,25.135 -13.603,0 -24.79,-11.16 -24.79,-25.135 0,-13.946 11.561,-25.201 25.477,-25.201 13.629,0 24.474,11.255 24.474,25.201 z m -4.772,39.109 0,159.005 -40.647,0 0,-152.616 40.647,-6.389 z" /><path
       style="fill:#ffffff"
       id="path3348"
       d="m 682.718,73.486 0,121.035 c 0,26.738 0.319,30.332 2.759,34.574 1.537,2.756 4.824,4.243 8.22,4.243 1.457,0 2.331,0 4.532,-0.559 l 6.947,24.245 c -6.947,2.719 -15.457,4.233 -24.258,4.233 -17.342,0 -31.288,-8.17 -36.116,-21.188 -3.048,-7.9 -3.711,-12.778 -3.711,-34.918 l 0,-115.945 c 0,-20.309 -0.528,-32.717 -2.043,-46.729 l 41.577,-9.399 c 1.457,8.485 2.093,18.506 2.093,40.408 z" /><path
       style="fill:#ffffff"
       id="path3350"
       d="m 767.031,73.486 0,121.035 c 0,26.738 0.347,30.332 2.84,34.574 1.43,2.756 4.717,4.243 8.112,4.243 1.537,0 2.466,0 4.612,-0.559 l 6.922,24.245 c -6.922,2.719 -15.434,4.233 -24.263,4.233 -17.312,0 -31.284,-8.17 -36.136,-21.188 -3.103,-7.9 -3.607,-12.778 -3.607,-34.918 l 0,-115.945 c 0,-20.309 -0.608,-32.717 -2.174,-46.729 l 41.52,-9.399 c 1.673,8.485 2.174,18.506 2.174,40.408 z" /><path
       style="fill:#ffffff"
       id="path3352"
       d="m 830.824,108.058 c 15.114,-6.39 28.108,-9.095 42.425,-9.095 26.143,0 44.013,9.68 50.136,26.991 2.016,6.365 2.944,11.218 2.759,27.919 l -0.982,52.155 c 0,0.915 0,1.881 0,2.756 0,16.678 2.759,23.067 14.637,31.846 l -21.581,24.922 c -9.495,-3.977 -17.95,-10.976 -21.903,-18.839 -2.995,3.063 -6.362,6.033 -9.438,8.18 -7.529,5.464 -18.531,8.513 -31.26,8.513 -34.599,0 -53.396,-17.634 -53.396,-48.521 0,-36.469 25.241,-53.48 74.66,-53.48 2.971,0 5.781,0 9.148,0.347 l 0,-6.336 c 0,-17.327 -3.367,-23.095 -18.32,-23.095 -12.887,0 -28.186,6.336 -44.837,17.591 l -17.313,-29.138 c 8.244,-5.173 14.317,-8.181 25.265,-12.716 z m 52.684,81.612 c -28.105,0 -37.967,5.117 -37.967,23.703 0,12.089 7.688,20.282 18.001,20.282 7.557,0 15.194,-3.95 21.214,-10.605 l 0.663,-33.38 -1.911,0 z" /></g></svg>