<?xml version="1.0" encoding="UTF-8" standalone="no"?>
<svg
   xmlns:osb="http://www.openswatchbook.org/uri/2009/osb"
   xmlns:dc="http://purl.org/dc/elements/1.1/"
   xmlns:cc="http://creativecommons.org/ns#"
   xmlns:rdf="http://www.w3.org/1999/02/22-rdf-syntax-ns#"
   xmlns:svg="http://www.w3.org/2000/svg"
   xmlns="http://www.w3.org/2000/svg"
   width="114"
   height="114"
   version="1.1">
  <g
     id="layer2"
     transform="translate(-4.6588619,-469.18836)">
    <g
       transform="matrix(0.3009389,0,0,0.30502199,-61.944575,452.54518)"
       style="stroke:#c13832;stroke-width:22.5970726;stroke-miterlimit:4;stroke-opacity:1;stroke-dasharray:none">
      <g
         style="stroke:#c13832;stroke-width:22.5970726;stroke-miterlimit:4;stroke-opacity:1;stroke-dasharray:none"
         transform="translate(88.103632,-40.201693)">
        <path
           style="fill:#F6F4EC;fill-opacity:1;stroke:#c13832;stroke-width:22.5970726;stroke-miterlimit:4;stroke-opacity:1;stroke-dasharray:none"
           d="m 411.90989,221.29004 c 43.14794,0 78.90565,65.96054 85.28611,152.13867 l -170.54825,0 c 6.38046,-86.17813 42.1142,-152.13867 85.26214,-152.13867 z" />
        <path
           style="fill:#F6F4EC;fill-opacity:1;stroke:#c13832;stroke-width:90.35587311;stroke-miterlimit:4;stroke-opacity:1;stroke-dasharray:none"
           d="m 597.14287,365.21933 c 0,109.66797 -88.90346,198.57143 -198.57143,198.57143 -109.66797,0 -198.57142,-88.90346 -198.57142,-198.57143 0,-109.66797 88.90345,-198.57143 198.57142,-198.57143 109.66797,0 198.57143,88.90346 198.57143,198.57143 z"
           transform="matrix(-0.25008969,0,0,0.25008969,511.37948,99.596024)" />
      </g>
      <g
         style="stroke:#c13832;stroke-width:22.5970726;stroke-miterlimit:4;stroke-opacity:1;stroke-dasharray:none"
         transform="translate(-88.673063,-40.201693)">
        <path
           style="fill:#F6F4EC;fill-opacity:1;stroke:#c13832;stroke-width:22.5970726;stroke-miterlimit:4;stroke-opacity:1;stroke-dasharray:none"
           d="m 411.90989,221.29004 c 43.14794,0 78.90565,65.96054 85.28611,152.13867 l -170.54825,0 c 6.38046,-86.17813 42.1142,-152.13867 85.26214,-152.13867 z" />
        <path
           style="fill:#F6F4EC;fill-opacity:1;stroke:#c13832;stroke-width:90.35587311;stroke-miterlimit:4;stroke-opacity:1;stroke-dasharray:none"
           d="m 597.14287,365.21933 c 0,109.66797 -88.90346,198.57143 -198.57143,198.57143 -109.66797,0 -198.57142,-88.90346 -198.57142,-198.57143 0,-109.66797 88.90345,-198.57143 198.57142,-198.57143 109.66797,0 198.57143,88.90346 198.57143,198.57143 z"
           transform="matrix(-0.25008969,0,0,0.25008969,511.37948,99.596024)" />
      </g>
      <g
         style="stroke:#c13832;stroke-width:22.5970726;stroke-miterlimit:4;stroke-opacity:1;stroke-dasharray:none">
        <path
           style="fill:#F6F4EC;fill-opacity:1;stroke:#c13832;stroke-width:22.5970726;stroke-miterlimit:4;stroke-opacity:1;stroke-dasharray:none"
           d="m 411.90989,221.29004 c 43.14794,0 78.90565,65.96054 85.28611,152.13867 l -170.54825,0 c 6.38046,-86.17813 42.1142,-152.13867 85.26214,-152.13867 z" />
        <path
           style="fill:#F6F4EC;fill-opacity:1;stroke:#c13832;stroke-width:90.35587311;stroke-miterlimit:4;stroke-opacity:1;stroke-dasharray:none"
           d="m 597.14287,365.21933 c 0,109.66797 -88.90346,198.57143 -198.57143,198.57143 -109.66797,0 -198.57142,-88.90346 -198.57142,-198.57143 0,-109.66797 88.90345,-198.57143 198.57142,-198.57143 109.66797,0 198.57143,88.90346 198.57143,198.57143 z"
           transform="matrix(-0.25008969,0,0,0.25008969,511.37948,99.596024)" />
      </g>
    </g>
  </g>
</svg>
