<?xml version="1.0" encoding="UTF-8" standalone="no"?>
<svg
   xmlns:dc="http://purl.org/dc/elements/1.1/"
   xmlns:cc="http://creativecommons.org/ns#"
   xmlns:rdf="http://www.w3.org/1999/02/22-rdf-syntax-ns#"
   xmlns:svg="http://www.w3.org/2000/svg"
   xmlns="http://www.w3.org/2000/svg"
   id="svg2"
   version="1.1"
   height="114"
   width="114">
  <metadata
     id="metadata29">
    <rdf:RDF>
      <cc:Work
         rdf:about="">
        <dc:format>image/svg+xml</dc:format>
        <dc:type
           rdf:resource="http://purl.org/dc/dcmitype/StillImage" />
        <dc:title></dc:title>
        <cc:license
           rdf:resource="http://creativecommons.org/licenses/by-sa/3.0/" />
      </cc:Work>
      <cc:License
         rdf:about="http://creativecommons.org/licenses/by-sa/3.0/">
        <cc:permits
           rdf:resource="http://creativecommons.org/ns#Reproduction" />
        <cc:permits
           rdf:resource="http://creativecommons.org/ns#Distribution" />
        <cc:requires
           rdf:resource="http://creativecommons.org/ns#Notice" />
        <cc:requires
           rdf:resource="http://creativecommons.org/ns#Attribution" />
        <cc:permits
           rdf:resource="http://creativecommons.org/ns#DerivativeWorks" />
        <cc:requires
           rdf:resource="http://creativecommons.org/ns#ShareAlike" />
      </cc:License>
    </rdf:RDF>
  </metadata>
  <defs
     id="defs27" />
  <g
     transform="translate(-4.6588619,-469.18836)"
     id="layer2">
    <g
       id="g5"
       style="stroke:#c13832;stroke-width:22.5970726;stroke-miterlimit:4;stroke-opacity:1;stroke-dasharray:none"
       transform="matrix(0.3009389,0,0,0.30502199,-61.944575,452.54518)">
      <g
         id="g7"
         transform="translate(88.103632,-40.201693)"
         style="stroke:#c13832;stroke-width:22.5970726;stroke-miterlimit:4;stroke-opacity:1;stroke-dasharray:none">
        <path
           id="path9"
           d="m 411.90989,221.29004 c 43.14794,0 78.90565,65.96054 85.28611,152.13867 l -170.54825,0 c 6.38046,-86.17813 42.1142,-152.13867 85.26214,-152.13867 z"
           style="fill:#F6F4EC;fill-opacity:1;stroke:#c13832;stroke-width:22.5970726;stroke-miterlimit:4;stroke-opacity:1;stroke-dasharray:none" />
        <path
           id="path11"
           transform="matrix(-0.25008969,0,0,0.25008969,511.37948,99.596024)"
           d="m 597.14287,365.21933 c 0,109.66797 -88.90346,198.57143 -198.57143,198.57143 -109.66797,0 -198.57142,-88.90346 -198.57142,-198.57143 0,-109.66797 88.90345,-198.57143 198.57142,-198.57143 109.66797,0 198.57143,88.90346 198.57143,198.57143 z"
           style="fill:#F6F4EC;fill-opacity:1;stroke:#c13832;stroke-width:90.35587311;stroke-miterlimit:4;stroke-opacity:1;stroke-dasharray:none" />
      </g>
      <g
         id="g13"
         transform="translate(-88.673063,-40.201693)"
         style="stroke:#c13832;stroke-width:22.5970726;stroke-miterlimit:4;stroke-opacity:1;stroke-dasharray:none">
        <path
           id="path15"
           d="m 411.90989,221.29004 c 43.14794,0 78.90565,65.96054 85.28611,152.13867 l -170.54825,0 c 6.38046,-86.17813 42.1142,-152.13867 85.26214,-152.13867 z"
           style="fill:#F6F4EC;fill-opacity:1;stroke:#c13832;stroke-width:22.5970726;stroke-miterlimit:4;stroke-opacity:1;stroke-dasharray:none" />
        <path
           id="path17"
           transform="matrix(-0.25008969,0,0,0.25008969,511.37948,99.596024)"
           d="m 597.14287,365.21933 c 0,109.66797 -88.90346,198.57143 -198.57143,198.57143 -109.66797,0 -198.57142,-88.90346 -198.57142,-198.57143 0,-109.66797 88.90345,-198.57143 198.57142,-198.57143 109.66797,0 198.57143,88.90346 198.57143,198.57143 z"
           style="fill:#F6F4EC;fill-opacity:1;stroke:#c13832;stroke-width:90.35587311;stroke-miterlimit:4;stroke-opacity:1;stroke-dasharray:none" />
      </g>
      <g
         id="g19"
         style="stroke:#c13832;stroke-width:22.5970726;stroke-miterlimit:4;stroke-opacity:1;stroke-dasharray:none">
        <path
           id="path21"
           d="m 411.90989,221.29004 c 43.14794,0 78.90565,65.96054 85.28611,152.13867 l -170.54825,0 c 6.38046,-86.17813 42.1142,-152.13867 85.26214,-152.13867 z"
           style="fill:#F6F4EC;fill-opacity:1;stroke:#c13832;stroke-width:22.5970726;stroke-miterlimit:4;stroke-opacity:1;stroke-dasharray:none" />
        <path
           id="path23"
           transform="matrix(-0.25008969,0,0,0.25008969,511.37948,99.596024)"
           d="m 597.14287,365.21933 c 0,109.66797 -88.90346,198.57143 -198.57143,198.57143 -109.66797,0 -198.57142,-88.90346 -198.57142,-198.57143 0,-109.66797 88.90345,-198.57143 198.57142,-198.57143 109.66797,0 198.57143,88.90346 198.57143,198.57143 z"
           style="fill:#F6F4EC;fill-opacity:1;stroke:#c13832;stroke-width:90.35587311;stroke-miterlimit:4;stroke-opacity:1;stroke-dasharray:none" />
      </g>
    </g>
  </g>
</svg>
