<svg xmlns="http://www.w3.org/2000/svg"
     viewBox="-8 -8 16 16" version="1.1">

  <title>Mozilla Webmaker</title>

  <defs>

    <clipPath id="clp_l" transform="rotate(26.565)">
      <path d="M-3.37,-5 h-3 v12 h8 l-5,-7 z" />
    </clipPath>
    <clipPath id="clp_r" transform="rotate(26.565)">
      <path d="M6.37,-7 h-8 l5,7 v5 h3 z" />
    </clipPath>
    <clipPath id="clp_f" transform="rotate(26.565)">
      <path d="M1.1,-7 h-2.2 v14 h2.2 z" />
    </clipPath>

    <linearGradient id="grd_b" x2="0" y2="1">
      <stop offset="0" stop-color="#d30" />
      <stop offset="1" stop-color="#c10" />
    </linearGradient>
    <linearGradient id="grd_l" x2="0" y2="1">
      <stop offset="46%" stop-color="#f66" />
      <stop offset="56%" stop-color="#e03" />
      <stop offset="99%" stop-color="#b00" />
    </linearGradient>
    <linearGradient id="grd_r" x2="0" y2="1">
      <stop offset="01%" stop-color="#d30"/>
      <stop offset="24%" stop-color="#d63"/>
      <stop offset="47%" stop-color="#fb9"/>
      <stop offset="57%" stop-color="#f86"/>
    </linearGradient>
    <linearGradient id="grd_f" x2="1" y2="0">
      <stop offset="33%" stop-color="#f66"/>
      <stop offset="99%" stop-color="#f96"/>
    </linearGradient>

  </defs>

  <path id="background"
        d="M-6,-6 c-2,2 -2,10 0,12 c2,2 10,2 12,0
           c2,-2 2,-10 0,-12 c-2,-2 -10,-2 -12,0 z"
        fill="#def" />

  <g id="symbol" fill="none" stroke-width="2.2"
     stroke-linecap="round" stroke-linejoin="round">
    <path id="back" d="M-2,-4 l4,8" stroke="url(#grd_b)" />
    <path id="left" d="M-2,-4 h-1 l-1.5,3 q-0.5,1 0,2 l1.5,3"
          stroke="url(#grd_l)" clip-path="url(#clp_l)" />
    <path id="right" d="M2,-4 h1 l1.5,3 q0.5,1 0,2 l-1.5,3 h-1"
          stroke="url(#grd_r)" clip-path="url(#clp_r)" />
    <path id="front" d="M3,-4 h-1 l-4,8 h-1"
          stroke="url(#grd_f)" clip-path="url(#clp_f)" />
  </g>

</svg>
