<?xml version="1.0" encoding="UTF-8" standalone="no"?>
<svg
   xmlns:dc="http://purl.org/dc/elements/1.1/"
   xmlns:cc="http://creativecommons.org/ns#"
   xmlns:rdf="http://www.w3.org/1999/02/22-rdf-syntax-ns#"
   xmlns:svg="http://www.w3.org/2000/svg"
   xmlns="http://www.w3.org/2000/svg"

   width="1429.8"
   height="290.58749"
   viewBox="0 0 760.58445 232.47"
   version="1.1"
   id="svg3046">
  <metadata
     id="metadata3067">
    <rdf:RDF>
      <cc:Work
         rdf:about="">
        <dc:format>image/svg+xml</dc:format>
        <dc:type
           rdf:resource="http://purl.org/dc/dcmitype/StillImage" />
        <dc:title></dc:title>
      </cc:Work>
    </rdf:RDF>
  </metadata>
  <defs
     id="defs3065" />
  <g
     id="surface1"
     transform="translate(-192,0)">
    <path
       style="fill:#ffffff;fill-opacity:1;fill-rule:nonzero;stroke:none"
       d="m 36.773438,66.492188 c 2.707031,4.175781 3.898437,7.902343 5.410156,15.761718 10.578125,-10.328125 23.625,-15.761718 37.859375,-15.761718 12.859375,0 23.414061,4.175781 31.578121,12.699218 2.20313,2.136719 4.32422,4.890625 6.15235,7.597656 14.21093,-14.554687 26.9375,-20.296874 43.98828,-20.296874 12.14062,0 23.64844,3.632812 30.67578,9.679687 8.77734,7.582031 11.55859,16.699219 11.55859,37.925785 l 0,110.44531 -39.44922,0 0,-102.53125 c 0,-18.58594 -2.20312,-22.179689 -12.78125,-22.179689 -7.58203,0 -18.24218,5.171879 -26.99218,13.058599 l 0,111.65234 -38.496096,0 0,-101.07422 c 0,-19.37891 -2.8125,-23.929688 -14.105469,-23.929688 -7.503906,0 -17.898437,3.886718 -26.648437,11.812498 l 0,113.19141 -39.71875,0 0,-108.33984 C 5.804688,93.773438 4.269531,84.082031 0,76.464844 l 36.773438,-9.972656"
       id="path3049" />
    <path
       style="fill:#ffffff;fill-opacity:1;fill-rule:nonzero;stroke:none"
       d="m 276.14453,111.96484 c -2.78516,8.21875 -4.26953,19.12891 -4.26953,34.61328 0,17.85547 1.82812,31.27344 5.14062,39.13282 3.66016,8.5 12.8086,12.74218 20.62891,12.74218 17.60547,0 25.13672,-15.76171 25.13672,-52.47265 0,-20.94531 -2.73047,-34.62891 -8.16797,-41.625 -3.89844,-5.117189 -10.23437,-8.16797 -17.55078,-8.16797 -9.73047,0 -17.63281,6.04297 -20.91797,15.77734 z m 73.09375,-22.429684 c 12.41016,14.554684 17.95313,31.535154 17.95313,56.714844 0,26.69531 -6.125,44.93359 -19.51563,60.07812 -11.76953,13.33594 -27.28125,21.55469 -51.19922,21.55469 -42.23437,0 -69.78125,-31.5664 -69.78125,-80.39062 0,-48.86719 27.83594,-81.343752 69.78125,-81.343752 22.14063,0 39.42969,7.609374 52.76172,23.386718"
       id="path3051" />
    <path
       style="fill:#ffffff;fill-opacity:1;fill-rule:nonzero;stroke:none"
       d="m 497.95703,69.199219 0,27.914062 -68.61719,99.203129 71.29688,0 -9.73438,28.22656 -114.32422,0 0,-25.17578 73.04688,-101.640628 -66.94922,0 0,-28.527343 115.28125,0"
       id="path3053" />
    <path
       style="fill:#ffffff;fill-opacity:1;fill-rule:nonzero;stroke:none"
       d="m 561.9375,65.539062 0,159.003908 -40.64844,0 0,-152.617189 z m 4.77344,-39.109374 c 0,13.972656 -11.11328,25.132812 -25.16407,25.132812 -13.60156,0 -24.78906,-11.160156 -24.78906,-25.132812 0,-13.945313 11.5586,-25.203126 25.47656,-25.203126 13.62891,0 24.47657,11.257813 24.47657,25.203126"
       id="path3055" />
    <path
       style="fill:#ffffff;fill-opacity:1;fill-rule:nonzero;stroke:none"
       d="m 635.96484,40.402344 0,121.035156 c 0,26.74219 0.31641,30.33203 2.75782,34.57812 1.53515,2.75391 4.82421,4.24219 8.21875,4.24219 1.45703,0 2.33203,0 4.53125,-0.55859 l 6.94921,24.24219 c -6.94921,2.72265 -15.45703,4.23437 -24.25781,4.23437 -17.34375,0 -31.28906,-8.16797 -36.11719,-21.1875 -3.04687,-7.89844 -3.71093,-12.77734 -3.71093,-34.91797 l 0,-115.94531 c 0,-20.3125 -0.52735,-32.71875 -2.04297,-46.730469 l 41.57812,-9.39843725 c 1.45703,8.48437525 2.09375,18.50781225 2.09375,40.40625025"
       id="path3057"/>
    <path
       style="fill:#ffffff;fill-opacity:1;fill-rule:nonzero;stroke:none"
       d="m 720.27734,40.402344 0,121.035156 c 0,26.74219 0.34375,30.33203 2.83985,34.57812 1.42968,2.75391 4.71484,4.24219 8.11328,4.24219 1.53515,0 2.46484,0 4.60937,-0.55859 l 6.92188,24.24219 c -6.92188,2.72265 -15.4336,4.23437 -24.26172,4.23437 -17.3125,0 -31.28516,-8.16797 -36.13672,-21.1875 -3.10156,-7.89844 -3.60547,-12.77734 -3.60547,-34.91797 l 0,-115.94531 c 0,-20.3125 -0.60937,-32.71875 -2.17578,-46.730469 l 41.51953,-9.39843725 c 1.67188,8.48437525 2.17578,18.50781225 2.17578,40.40625025"
       id="path3059" />
    <path
       style="fill:#ffffff;fill-opacity:1;fill-rule:nonzero;stroke:none"
       d="m 836.75391,156.58984 c -28.10547,0 -37.96875,5.11719 -37.96875,23.70313 0,12.08594 7.6914,20.28125 18,20.28125 7.55859,0 15.19531,-3.94922 21.21484,-10.60547 l 0.66406,-33.37891 z m -52.6836,-81.613278 c 15.11328,-6.390624 28.10938,-9.09375 42.42188,-9.09375 26.14453,0 44.01562,9.679688 50.13672,26.988282 2.01562,6.367187 2.94531,11.218746 2.76171,27.917966 l -0.98437,52.15625 c 0,0.91406 0,1.88281 0,2.75781 0,16.67579 2.75781,23.06641 14.63672,31.84375 l -21.58203,24.92188 c -9.49219,-3.97656 -17.94922,-10.97656 -21.90235,-18.83594 -2.99609,3.0586 -6.36328,6.03125 -9.4375,8.17578 -7.53125,5.46485 -18.53125,8.51563 -31.26172,8.51563 -34.59765,0 -53.39453,-17.63672 -53.39453,-48.52344 0,-36.46875 25.23828,-53.48047 74.66016,-53.48047 2.96875,0 5.78125,0 9.14844,0.34766 l 0,-6.33594 c 0,-17.32812 -3.36719,-23.093749 -18.32032,-23.093749 -12.88671,0 -28.1875,6.335939 -44.83984,17.589849 l -17.3125,-29.136724 c 8.24609,-5.171875 14.32031,-8.179687 25.26953,-12.714844"
       id="path3061" />
  </g>
  <g
     id="g3011"
     transform="matrix(0.71621574,0,0,0.71621574,63.17172,66.686594)">
    <path
       d="m 936.38087,202.32868 c 4.29928,2e-5 7.77983,1.43316 10.44141,4.2994 2.8661,2.66155 4.29928,6.03966 4.2994,10.13431 -1.2e-4,4.29942 -1.4333,7.88225 -4.2994,10.74851 -2.66158,2.66154 -6.14213,3.99231 -10.44141,3.99231 -4.09475,0 -7.57518,-1.43314 -10.44141,-4.29941 -2.86635,-2.86626 -4.29953,-6.34673 -4.29941,-10.44141 -1.2e-4,-4.09465 1.43306,-7.47276 4.29941,-10.13431 2.86623,-2.86624 6.34666,-4.29938 10.44141,-4.2994"
       style="font-size:250px;font-style:normal;font-variant:normal;font-stretch:normal;line-height:125%;letter-spacing:0px;word-spacing:0px;fill:#ffffff;fill-opacity:0.7;stroke:none;font-family:Fira Sans;-inkscape-font-specification:Fira Sans Semi-Light"
       id="path2994" />
    <path
       d="m 1035.2534,64.133542 c 9.2129,1.6e-4 17.4022,1.330936 24.5681,3.992304 7.1655,2.456962 14.1265,6.551629 20.8828,12.284012 l -8.9059,11.669812 c -5.3233,-4.299269 -10.8511,-7.472635 -16.5834,-9.52011 -5.528,-2.047192 -11.8747,-3.070855 -19.0403,-3.071002 -15.1503,1.47e-4 -27.2297,5.937415 -36.23779,17.811817 -9.00835,11.669935 -13.51253,28.765165 -13.51241,51.285745 -1.2e-4,22.31601 4.40173,39.10415 13.20531,50.36445 9.00809,11.26036 21.08749,16.89053 36.23779,16.89052 7.1656,1e-5 13.6147,-1.12603 19.3474,-3.3781 5.9371,-2.25206 11.8743,-5.73252 17.8118,-10.44141 l 8.5988,12.28401 c -13.5125,11.46509 -28.8676,17.19762 -46.0651,17.19762 -13.7173,0 -25.6942,-3.27574 -35.93069,-9.82721 -10.23676,-6.55146 -18.22136,-15.96919 -23.95382,-28.25323 -5.52793,-12.4887 -8.29183,-27.33187 -8.29171,-44.52954 -1.2e-4,-16.9928 2.76378,-31.83596 8.29171,-44.52955 5.73246,-12.898076 13.71706,-22.827636 23.95382,-29.788727 10.23649,-6.960785 22.11109,-10.441251 35.62359,-10.441411"
       style="font-size:250px;font-style:normal;font-variant:normal;font-stretch:normal;line-height:125%;letter-spacing:0px;word-spacing:0px;fill:#ffffff;fill-opacity:0.7;stroke:none;font-family:Fira Sans;-inkscape-font-specification:Fira Sans Semi-Light"
       id="path2996" />
    <path
       d="m 1195.1759,64.133542 c 14.3312,1.6e-4 25.3868,4.401927 33.1669,13.205313 7.7797,8.598956 11.6695,20.575856 11.6698,35.930735 l 0,114.85551 -17.8118,0 0,-112.39871 c -2e-4,-24.772624 -10.1345,-37.158986 -30.403,-37.159133 -10.2369,1.47e-4 -19.3474,2.866412 -27.3319,8.598808 -7.78,5.527941 -15.2528,13.717275 -22.4183,24.568025 l 0,116.39101 -17.8118,0 0,-226.0258181 17.8118,-2.1497021 0,94.2797922 c 14.3312,-20.063735 32.0406,-30.09567 53.1283,-30.09583"
       style="font-size:250px;font-style:normal;font-variant:normal;font-stretch:normal;line-height:125%;letter-spacing:0px;word-spacing:0px;fill:#ffffff;fill-opacity:0.7;stroke:none;font-family:Fira Sans;-inkscape-font-specification:Fira Sans Semi-Light"
       id="path2998" />
  </g>
</svg>

